<svg width="202" height="40" viewBox="0 0 202 40" fill="none" xmlns="http://www.w3.org/2000/svg">
<g clip-path="url(#clip0_3_116)">
<path fill-rule="evenodd" clip-rule="evenodd" d="M25.5557 11.6853C23.9112 10.5865 21.9778 10 20 10V0C23.9556 0 27.8224 1.17298 31.1114 3.37061C34.4004 5.56823 36.9638 8.69181 38.4776 12.3463C39.9913 16.0008 40.3874 20.0222 39.6157 23.9018C38.844 27.7814 36.9392 31.3451 34.1421 34.1421C31.3451 36.9392 27.7814 38.844 23.9018 39.6157C20.0222 40.3874 16.0008 39.9913 12.3463 38.4776C8.6918 36.9638 5.56823 34.4004 3.37061 31.1114C1.17298 27.8224 0 23.9556 0 20H10C10 21.9778 10.5865 23.9112 11.6853 25.5557C12.7841 27.2002 14.3459 28.4819 16.1732 29.2388C18.0004 29.9957 20.0111 30.1937 21.9509 29.8078C23.8907 29.422 25.6725 28.4696 27.0711 27.0711C28.4696 25.6725 29.422 23.8907 29.8078 21.9509C30.1937 20.0111 29.9957 18.0004 29.2388 16.1732C28.4819 14.3459 27.2002 12.7841 25.5557 11.6853Z" fill="#969695"/>
<path fill-rule="evenodd" clip-rule="evenodd" d="M9.99999 5.28493e-06C9.99999 1.31322 9.74134 2.61358 9.23879 3.82684C8.73624 5.04009 7.99965 6.14248 7.07106 7.07107C6.14248 7.99966 5.04009 8.73625 3.82683 9.2388C2.61357 9.74134 1.31321 10 4.3711e-07 10L0 20C2.62643 20 5.22715 19.4827 7.65367 18.4776C10.0802 17.4725 12.285 15.9993 14.1421 14.1421C15.9993 12.285 17.4725 10.0802 18.4776 7.65367C19.4827 5.22715 20 2.62643 20 0L9.99999 5.28493e-06Z" fill="#969695"/>
<path d="M125.618 14.4524H120.766V29.8647H125.618V14.4524Z" fill="#969695"/>
<path d="M121.308 11.5666C121.815 12.074 122.449 12.3277 123.21 12.3277C123.971 12.3277 124.595 12.074 125.081 11.5666C125.568 11.0381 125.811 10.4038 125.811 9.66385C125.811 8.90277 125.568 8.26849 125.081 7.76111C124.595 7.25369 123.971 7 123.21 7C122.449 7 121.815 7.25369 121.308 7.76111C120.821 8.26849 120.578 8.90277 120.578 9.66385C120.578 10.4038 120.821 11.0381 121.308 11.5666Z" fill="#969695"/>
<path d="M51.1562 29.865V7.47583H56.1351V25.4887H66.0612V29.865H51.1562Z" fill="#969695"/>
<path fill-rule="evenodd" clip-rule="evenodd" d="M75.0292 30.2135C73.4436 30.2135 72.006 29.8647 70.7163 29.167C69.4478 28.4482 68.4436 27.4757 67.7036 26.2494C66.9637 25.0232 66.5938 23.649 66.5938 22.1268C66.5938 20.6046 66.9637 19.241 67.7036 18.0359C68.4436 16.8308 69.4478 15.8794 70.7163 15.1818C71.9848 14.4629 73.4225 14.1035 75.0292 14.1035C76.636 14.1035 78.0736 14.4524 79.3421 15.15C80.6106 15.8477 81.6149 16.8097 82.3548 18.0359C83.0948 19.241 83.4648 20.6046 83.4648 22.1268C83.4648 23.649 83.0948 25.0232 82.3548 26.2494C81.6149 27.4757 80.6106 28.4482 79.3421 29.167C78.0736 29.8647 76.636 30.2135 75.0292 30.2135ZM75.0292 25.8055C75.7269 25.8055 76.34 25.6575 76.8686 25.3615C77.3971 25.0444 77.7988 24.611 78.0736 24.0613C78.3696 23.4905 78.5176 22.8456 78.5176 22.1268C78.5176 21.408 78.3696 20.7843 78.0736 20.2558C77.7776 19.7061 77.3654 19.2833 76.8368 18.9873C76.3294 18.6701 75.7269 18.5116 75.0292 18.5116C74.3527 18.5116 73.7502 18.6701 73.2216 18.9873C72.6931 19.2833 72.2808 19.7061 71.9848 20.2558C71.6888 20.8055 71.5409 21.4397 71.5409 22.1585C71.5409 22.8562 71.6888 23.4905 71.9848 24.0613C72.2808 24.611 72.6931 25.0444 73.2216 25.3615C73.7502 25.6575 74.3527 25.8055 75.0292 25.8055Z" fill="#969695"/>
<path fill-rule="evenodd" clip-rule="evenodd" d="M87.3066 35.8904C88.5962 36.4823 90.0867 36.7783 91.7781 36.7783C93.4271 36.7783 94.8965 36.4506 96.1861 35.7952C97.4758 35.1398 98.4905 34.2308 99.2305 33.068C99.9704 31.9052 100.341 30.531 100.341 28.9453V14.4527H95.5835V15.4882C95.2297 15.1904 94.8279 14.9404 94.3785 14.7381C93.5539 14.3364 92.6131 14.1355 91.5561 14.1355C90.1396 14.1355 88.8816 14.4738 87.7823 15.1503C86.6828 15.8057 85.8161 16.7148 85.1818 17.8776C84.5475 19.0193 84.2305 20.3089 84.2305 21.7466C84.2305 23.1631 84.5475 24.4527 85.1818 25.6155C85.8161 26.7783 86.6828 27.698 87.7823 28.3745C88.8816 29.051 90.1396 29.3893 91.5561 29.3893C92.592 29.3893 93.5328 29.1885 94.3785 28.7868C94.7881 28.5922 95.1581 28.3629 95.4884 28.0988V29.0722C95.4884 30.1504 95.1396 30.9855 94.4419 31.5775C93.7654 32.1695 92.8246 32.4654 91.6195 32.4654C90.647 32.4654 89.8119 32.2963 89.1142 31.958C88.4377 31.6198 87.8245 31.1229 87.2748 30.4675L84.2939 33.4485C85.0338 34.5056 86.0381 35.3196 87.3066 35.8904ZM94.2199 24.6324C93.7336 24.9284 93.1523 25.0764 92.4757 25.0764C91.7992 25.0764 91.2072 24.9284 90.6998 24.6324C90.2135 24.3364 89.833 23.9347 89.5582 23.4273C89.2833 22.8988 89.1459 22.3385 89.1459 21.7466C89.1459 21.1123 89.2833 20.5415 89.5582 20.0341C89.833 19.5267 90.2241 19.125 90.7315 18.829C91.2389 18.533 91.8203 18.385 92.4757 18.385C93.1523 18.385 93.7336 18.533 94.2199 18.829C94.7273 19.125 95.1078 19.5267 95.3616 20.0341C95.6364 20.5415 95.7738 21.1123 95.7738 21.7466C95.7738 22.3808 95.6364 22.9516 95.3616 23.459C95.1078 23.9453 94.7273 24.3364 94.2199 24.6324Z" fill="#969695"/>
<path fill-rule="evenodd" clip-rule="evenodd" d="M110.549 30.2135C108.963 30.2135 107.525 29.8647 106.236 29.167C104.967 28.4482 103.963 27.4757 103.223 26.2494C102.483 25.0232 102.113 23.649 102.113 22.1268C102.113 20.6046 102.483 19.241 103.223 18.0359C103.963 16.8308 104.967 15.8794 106.236 15.1818C107.504 14.4629 108.942 14.1035 110.549 14.1035C112.155 14.1035 113.593 14.4524 114.861 15.15C116.13 15.8477 117.134 16.8097 117.874 18.0359C118.614 19.241 118.984 20.6046 118.984 22.1268C118.984 23.649 118.614 25.0232 117.874 26.2494C117.134 27.4757 116.13 28.4482 114.861 29.167C113.593 29.8647 112.155 30.2135 110.549 30.2135ZM110.549 25.8055C111.246 25.8055 111.859 25.6575 112.388 25.3615C112.916 25.0444 113.318 24.611 113.593 24.0613C113.889 23.4905 114.037 22.8456 114.037 22.1268C114.037 21.408 113.889 20.7843 113.593 20.2558C113.297 19.7061 112.885 19.2833 112.356 18.9873C111.849 18.6701 111.246 18.5116 110.549 18.5116C109.872 18.5116 109.269 18.6701 108.741 18.9873C108.212 19.2833 107.8 19.7061 107.504 20.2558C107.208 20.8055 107.06 21.4397 107.06 22.1585C107.06 22.8562 107.208 23.4905 107.504 24.0613C107.8 24.611 108.212 25.0444 108.741 25.3615C109.269 25.6575 109.872 25.8055 110.549 25.8055Z" fill="#969695"/>
<path fill-rule="evenodd" clip-rule="evenodd" d="M137.281 30.1819C136.246 30.1819 135.294 29.9811 134.427 29.5794C133.971 29.368 133.559 29.1156 133.191 28.8222V36.3659H128.402V14.4525H133.254V15.5162C133.606 15.2283 133.997 14.9794 134.427 14.7696C135.294 14.3467 136.246 14.1353 137.281 14.1353C138.74 14.1353 140.03 14.4842 141.15 15.1819C142.292 15.8795 143.18 16.8309 143.814 18.036C144.47 19.2411 144.797 20.6153 144.797 22.1586C144.797 23.702 144.47 25.0762 143.814 26.2813C143.18 27.4864 142.292 28.4377 141.15 29.1354C140.03 29.8331 138.74 30.1819 137.281 30.1819ZM136.394 25.8056C137.091 25.8056 137.694 25.647 138.201 25.3299C138.73 25.0128 139.142 24.5793 139.438 24.0297C139.734 23.48 139.882 22.8563 139.882 22.1586C139.882 21.4398 139.734 20.8056 139.438 20.2559C139.142 19.7062 138.73 19.2834 138.201 18.9874C137.694 18.6702 137.102 18.5117 136.425 18.5117C135.749 18.5117 135.146 18.6702 134.618 18.9874C134.11 19.2834 133.709 19.7062 133.413 20.2559C133.117 20.8056 132.969 21.4398 132.969 22.1586C132.969 22.8563 133.106 23.48 133.381 24.0297C133.677 24.5793 134.089 25.0128 134.618 25.3299C135.146 25.647 135.738 25.8056 136.394 25.8056Z" fill="#969695"/>
<path d="M149.544 29.8965C150.432 30.1291 151.33 30.2453 152.239 30.2453C154.163 30.2453 155.685 29.8014 156.806 28.9134C157.947 28.0255 158.518 26.831 158.518 25.3299C158.518 24.3574 158.339 23.5751 157.979 22.9832C157.62 22.3701 157.155 21.8838 156.584 21.5244C156.013 21.165 155.41 20.8795 154.776 20.6681C154.142 20.4567 153.539 20.277 152.969 20.129C152.398 19.981 151.933 19.8119 151.573 19.6216C151.214 19.4313 151.034 19.1776 151.034 18.8605C151.034 18.5645 151.172 18.3425 151.446 18.1945C151.721 18.0254 152.133 17.9409 152.683 17.9409C153.254 17.9409 153.835 18.0571 154.427 18.2897C155.04 18.5222 155.59 18.924 156.076 19.4948L158.835 16.7041C158.138 15.8161 157.229 15.1501 156.108 14.7062C155.009 14.2411 153.804 14.0085 152.493 14.0085C151.246 14.0085 150.157 14.2199 149.227 14.6427C148.296 15.0656 147.577 15.647 147.07 16.3869C146.563 17.1057 146.309 17.962 146.309 18.9557C146.309 19.8859 146.489 20.6576 146.848 21.2707C147.207 21.8626 147.673 22.3278 148.243 22.666C148.814 23.0043 149.417 23.2686 150.051 23.4588C150.685 23.6491 151.288 23.8288 151.859 23.998C152.429 24.146 152.895 24.3257 153.254 24.5371C153.635 24.7274 153.825 25.0128 153.825 25.3933C153.825 25.6893 153.666 25.9218 153.349 26.091C153.053 26.2601 152.62 26.3447 152.049 26.3447C151.224 26.3447 150.463 26.1967 149.766 25.9007C149.068 25.5836 148.465 25.1502 147.958 24.6005L145.199 27.3912C145.728 27.962 146.362 28.4695 147.102 28.9134C147.863 29.3362 148.677 29.6639 149.544 29.8965Z" fill="#969695"/>
<path d="M167.367 30.2137C165.951 30.2137 164.693 29.9283 163.594 29.3575C162.515 28.7655 161.67 27.9621 161.057 26.9473C160.443 25.9114 160.137 24.7275 160.137 23.3955V14.4526H164.989V23.3321C164.989 23.8606 165.073 24.3152 165.243 24.6957C165.433 25.0763 165.708 25.3723 166.067 25.5837C166.427 25.7951 166.86 25.9008 167.367 25.9008C168.086 25.9008 168.657 25.6788 169.08 25.2348C169.503 24.7697 169.714 24.1355 169.714 23.3321V14.4526H174.566V23.3638C174.566 24.7169 174.26 25.9114 173.646 26.9473C173.033 27.9621 172.188 28.7655 171.109 29.3575C170.031 29.9283 168.784 30.2137 167.367 30.2137Z" fill="#969695"/>
<path d="M181.832 14.4525H176.98V29.8648H181.832V20.8584C181.832 20.3299 181.938 19.8859 182.149 19.5265C182.382 19.1671 182.689 18.8922 183.069 18.702C183.45 18.4905 183.883 18.3848 184.369 18.3848C185.067 18.3848 185.648 18.6068 186.113 19.0508C186.6 19.4736 186.843 20.0762 186.843 20.8584V29.8648H191.695V20.8584C191.695 20.3299 191.801 19.8859 192.012 19.5265C192.245 19.1671 192.551 18.8922 192.932 18.702C193.312 18.4905 193.746 18.3848 194.232 18.3848C194.93 18.3848 195.511 18.6068 195.976 19.0508C196.462 19.4736 196.705 20.0762 196.705 20.8584V29.8648H201.558V20.3193C201.558 19.0297 201.283 17.9303 200.733 17.0212C200.204 16.0909 199.475 15.3827 198.545 14.8965C197.636 14.389 196.589 14.1353 195.405 14.1353C194.2 14.1353 193.111 14.3996 192.139 14.9282C191.507 15.2649 190.955 15.6995 190.482 16.2319C190.041 15.675 189.505 15.2193 188.872 14.8647C188.027 14.3785 187.065 14.1353 185.987 14.1353C184.845 14.1353 183.82 14.3785 182.911 14.8647C182.515 15.067 182.156 15.3093 181.832 15.5916V14.4525Z" fill="#969695"/>
</g>
<defs>
<clipPath id="clip0_3_116">
<rect width="202" height="40" fill="white"/>
</clipPath>
</defs>
</svg>
