<svg width="164" height="40" viewBox="0 0 164 40" fill="none" xmlns="http://www.w3.org/2000/svg">
<g clip-path="url(#clip0_3_140)">
<path d="M48.1055 28.2461H59.7729V24.7339H52.2523V11.5046H48.1055V28.2461Z" fill="#969695"/>
<path d="M66.6851 25.9048C65.0216 25.9048 64.1548 24.4531 64.1548 22.2755C64.1548 20.098 65.0216 18.6229 66.6851 18.6229C68.3485 18.6229 69.2388 20.098 69.2388 22.2755C69.2388 24.4531 68.3485 25.9048 66.6851 25.9048ZM66.7085 28.6209C70.5742 28.6209 73.1045 25.8814 73.1045 22.2755C73.1045 18.6697 70.5742 15.9302 66.7085 15.9302C62.8662 15.9302 60.2891 18.6697 60.2891 22.2755C60.2891 25.8814 62.8662 28.6209 66.7085 28.6209Z" fill="#969695"/>
<path d="M79.7945 32.3906C81.5751 32.3906 83.1448 31.9926 84.1991 31.056C85.1597 30.1897 85.7923 28.8784 85.7923 27.0755V16.258H82.1374V17.5458H82.0906C81.3877 16.5389 80.31 15.9067 78.7168 15.9067C75.7414 15.9067 73.6797 18.3887 73.6797 21.9009C73.6797 25.577 76.1865 27.5906 78.8808 27.5906C80.3334 27.5906 81.2471 27.0053 81.95 26.2092H82.0437V27.4033C82.0437 28.855 81.3643 29.698 79.7477 29.698C78.4825 29.698 77.85 29.1594 77.6391 28.5272H73.9374C74.3123 31.0326 76.4911 32.3906 79.7945 32.3906ZM79.7711 24.7575C78.342 24.7575 77.4048 23.5867 77.4048 21.7838C77.4048 19.9575 78.342 18.7867 79.7711 18.7867C81.3643 18.7867 82.2077 20.1448 82.2077 21.7604C82.2077 23.4463 81.4346 24.7575 79.7711 24.7575Z" fill="#969695"/>
<path d="M93.3062 25.9048C91.6427 25.9048 90.7759 24.4531 90.7759 22.2755C90.7759 20.098 91.6427 18.6229 93.3062 18.6229C94.9696 18.6229 95.8599 20.098 95.8599 22.2755C95.8599 24.4531 94.9696 25.9048 93.3062 25.9048ZM93.3296 28.6209C97.1953 28.6209 99.7251 25.8814 99.7251 22.2755C99.7251 18.6697 97.1953 15.9302 93.3296 15.9302C89.4873 15.9302 86.9102 18.6697 86.9102 22.2755C86.9102 25.8814 89.4873 28.6209 93.3296 28.6209Z" fill="#969695"/>
<path d="M100.844 28.2461H104.663V16.2578H100.844V28.2461ZM100.844 14.5954H104.663V11.5046H100.844V14.5954Z" fill="#969695"/>
<path d="M106.316 32.2033H110.135V27.0053H110.182C110.932 28.0121 112.033 28.6209 113.579 28.6209C116.719 28.6209 118.804 26.1389 118.804 22.2521C118.804 18.6462 116.859 15.9067 113.673 15.9067C112.033 15.9067 110.862 16.6326 110.042 17.7097H109.971V16.258H106.316V32.2033ZM112.595 25.6706C110.955 25.6706 110.018 24.336 110.018 22.3926C110.018 20.4492 110.862 18.9741 112.525 18.9741C114.165 18.9741 114.938 20.3321 114.938 22.3926C114.938 24.4297 114.048 25.6706 112.595 25.6706Z" fill="#969695"/>
<path d="M125.021 28.6209C128.161 28.6209 130.48 27.2628 130.48 24.6404C130.48 21.5731 127.997 21.0345 125.888 20.6833C124.365 20.4023 123.006 20.2853 123.006 19.4423C123.006 18.6931 123.733 18.3419 124.67 18.3419C125.724 18.3419 126.45 18.6697 126.591 19.7467H130.105C129.918 17.3819 128.09 15.9067 124.693 15.9067C121.858 15.9067 119.515 17.218 119.515 19.7467C119.515 22.5565 121.741 23.1184 123.826 23.4697C125.419 23.7506 126.872 23.8677 126.872 24.9448C126.872 25.7175 126.146 26.1389 124.998 26.1389C123.733 26.1389 122.936 25.5536 122.795 24.3594H119.188C119.305 27.0053 121.507 28.6209 125.021 28.6209Z" fill="#969695"/>
<path d="M135.67 28.5976C137.334 28.5976 138.388 27.942 139.255 26.7712H139.325V28.2464H142.98V16.2581H139.161V22.9546C139.161 24.3829 138.365 25.3664 137.053 25.3664C135.834 25.3664 135.249 24.6405 135.249 23.3293V16.2581H131.453V24.1254C131.453 26.7946 132.906 28.5976 135.67 28.5976Z" fill="#969695"/>
<path d="M144.641 28.2463H148.459V21.5263C148.459 20.098 149.162 19.0911 150.357 19.0911C151.505 19.0911 152.044 19.8404 152.044 21.1282V28.2463H155.863V21.5263C155.863 20.098 156.542 19.0911 157.761 19.0911C158.909 19.0911 159.447 19.8404 159.447 21.1282V28.2463H163.266V20.4492C163.266 17.7565 161.907 15.9067 159.19 15.9067C157.643 15.9067 156.355 16.5623 155.418 18.0141H155.371C154.762 16.7263 153.567 15.9067 151.997 15.9067C150.263 15.9067 149.115 16.7263 148.366 17.9672H148.295V16.258H144.641V28.2463Z" fill="#969695"/>
<path d="M24.8076 1.92855L20.9682 0.900391L17.7327 12.9683L14.8117 2.07331L10.9722 3.10146L14.1282 14.8727L6.26734 7.01647L3.4567 9.82543L12.0791 18.4428L1.34127 15.5673L0.3125 19.4044L12.045 22.5462C11.9106 21.9672 11.8396 21.3639 11.8396 20.744C11.8396 16.3561 15.3988 12.799 19.7893 12.799C24.1798 12.799 27.739 16.3561 27.739 20.744C27.739 21.3599 27.6688 21.9595 27.5361 22.5351L38.1988 25.3904L39.2275 21.5533L27.4484 18.399L38.187 15.5233L37.1581 11.6862L25.3795 14.8404L33.2404 6.98421L30.4298 4.17525L21.9269 12.673L24.8076 1.92855Z" fill="#969695"/>
<path d="M27.5245 22.5798C27.1954 23.9707 26.5004 25.2201 25.5469 26.2212L33.2715 33.9413L36.0821 31.1323L27.5245 22.5798Z" fill="#969695"/>
<path d="M25.4663 26.302C24.5013 27.2871 23.2817 28.0222 21.9141 28.401L24.7249 38.8849L28.5643 37.8567L25.4663 26.302Z" fill="#969695"/>
<path d="M21.7703 28.4394C21.1358 28.6024 20.4707 28.6891 19.7853 28.6891C19.051 28.6891 18.34 28.5896 17.6649 28.4033L14.8516 38.8968L18.6909 39.9249L21.7703 28.4394Z" fill="#969695"/>
<path d="M17.5305 28.3647C16.1837 27.967 14.9858 27.2225 14.0405 26.2346L6.29688 33.9736L9.10751 36.7826L17.5305 28.3647Z" fill="#969695"/>
<path d="M13.9771 26.1661C13.0479 25.172 12.3712 23.9392 12.049 22.5698L1.35156 25.4345L2.38032 29.2716L13.9771 26.1661Z" fill="#969695"/>
</g>
<defs>
<clipPath id="clip0_3_140">
<rect width="164" height="40" fill="white"/>
</clipPath>
</defs>
</svg>
