<svg width="166" height="40" viewBox="0 0 166 40" fill="none" xmlns="http://www.w3.org/2000/svg">
<g clip-path="url(#clip0_3_156)">
<path d="M50.6406 27.4517H62.3114V23.9395H54.7887V10.7102H50.6406V27.4517Z" fill="#969695"/>
<path d="M69.226 25.1101C67.5621 25.1101 66.6949 23.6584 66.6949 21.4809C66.6949 19.3033 67.5621 17.8282 69.226 17.8282C70.8899 17.8282 71.7804 19.3033 71.7804 21.4809C71.7804 23.6584 70.8899 25.1101 69.226 25.1101ZM69.2494 27.8262C73.1162 27.8262 75.6472 25.0867 75.6472 21.4809C75.6472 17.875 73.1162 15.1355 69.2494 15.1355C65.406 15.1355 62.8281 17.875 62.8281 21.4809C62.8281 25.0867 65.406 27.8262 69.2494 27.8262Z" fill="#969695"/>
<path d="M82.3393 31.5962C84.1203 31.5962 85.6905 31.1982 86.7451 30.2616C87.7059 29.3952 88.3387 28.084 88.3387 26.2811V15.4635H84.6828V16.7513H84.6359C83.9329 15.7445 82.8548 15.1123 81.2612 15.1123C78.285 15.1123 76.2227 17.5943 76.2227 21.1065C76.2227 24.7825 78.7302 26.7962 81.4253 26.7962C82.8783 26.7962 83.7923 26.2108 84.4953 25.4147H84.5891V26.6089C84.5891 28.0606 83.9094 28.9035 82.2924 28.9035C81.0269 28.9035 80.3941 28.365 80.1832 27.7328H76.4804C76.8554 30.2382 79.0349 31.5962 82.3393 31.5962ZM82.3158 23.963C80.8863 23.963 79.9489 22.7923 79.9489 20.9894C79.9489 19.163 80.8863 17.9923 82.3158 17.9923C83.9094 17.9923 84.7531 19.3504 84.7531 20.966C84.7531 22.6518 83.9797 23.963 82.3158 23.963Z" fill="#969695"/>
<path d="M95.8549 25.1101C94.191 25.1101 93.3239 23.6584 93.3239 21.4809C93.3239 19.3033 94.191 17.8282 95.8549 17.8282C97.5188 17.8282 98.4093 19.3033 98.4093 21.4809C98.4093 23.6584 97.5188 25.1101 95.8549 25.1101ZM95.8783 27.8262C99.7451 27.8262 102.276 25.0867 102.276 21.4809C102.276 17.875 99.7451 15.1355 95.8783 15.1355C92.0349 15.1355 89.457 17.875 89.457 21.4809C89.457 25.0867 92.0349 27.8262 95.8783 27.8262Z" fill="#969695"/>
<path d="M103.391 27.4517H107.211V15.4634H103.391V27.4517ZM103.391 13.8009H107.211V10.7102H103.391V13.8009Z" fill="#969695"/>
<path d="M108.871 31.4089H112.691V26.2108H112.738C113.488 27.2177 114.589 27.8264 116.136 27.8264C119.276 27.8264 121.362 25.3445 121.362 21.4577C121.362 17.8518 119.417 15.1123 116.23 15.1123C114.589 15.1123 113.418 15.8382 112.597 16.9152H112.527V15.4635H108.871V31.4089ZM115.152 24.8762C113.511 24.8762 112.574 23.5416 112.574 21.5982C112.574 19.6547 113.418 18.1796 115.081 18.1796C116.722 18.1796 117.495 19.5377 117.495 21.5982C117.495 23.6352 116.605 24.8762 115.152 24.8762Z" fill="#969695"/>
<path d="M127.581 27.8265C130.722 27.8265 133.042 26.4684 133.042 23.846C133.042 20.7786 130.558 20.2401 128.449 19.8889C126.925 19.6079 125.566 19.4908 125.566 18.6479C125.566 17.8986 126.293 17.5474 127.23 17.5474C128.285 17.5474 129.011 17.8752 129.152 18.9523H132.667C132.479 16.5874 130.652 15.1123 127.253 15.1123C124.418 15.1123 122.074 16.4235 122.074 18.9523C122.074 21.7621 124.301 22.324 126.386 22.6752C127.98 22.9562 129.433 23.0733 129.433 24.1504C129.433 24.923 128.706 25.3445 127.558 25.3445C126.293 25.3445 125.496 24.7591 125.355 23.565H121.746C121.863 26.2108 124.066 27.8265 127.581 27.8265Z" fill="#969695"/>
<path d="M138.23 27.8029C139.894 27.8029 140.949 27.1473 141.816 25.9765H141.886V27.4517H145.542V15.4634H141.722V22.16C141.722 23.5883 140.925 24.5717 139.613 24.5717C138.394 24.5717 137.808 23.8458 137.808 22.5346V15.4634H134.012V23.3307C134.012 26 135.465 27.8029 138.23 27.8029Z" fill="#969695"/>
<path d="M147.203 27.4518H151.023V20.7318C151.023 19.3035 151.726 18.2967 152.921 18.2967C154.07 18.2967 154.609 19.046 154.609 20.3338V27.4518H158.429V20.7318C158.429 19.3035 159.108 18.2967 160.327 18.2967C161.475 18.2967 162.014 19.046 162.014 20.3338V27.4518H165.834V19.6547C165.834 16.9621 164.475 15.1123 161.756 15.1123C160.21 15.1123 158.921 15.7679 157.983 17.2196H157.936C157.327 15.9318 156.132 15.1123 154.562 15.1123C152.828 15.1123 151.679 15.9318 150.929 17.1728H150.859V15.4635H147.203V27.4518Z" fill="#969695"/>
<path fill-rule="evenodd" clip-rule="evenodd" d="M20.1974 39.1591C30.9832 39.1591 39.7268 30.4232 39.7268 19.6469C39.7268 8.87068 30.9832 0.134766 20.1974 0.134766C9.41157 0.134766 0.667969 8.87068 0.667969 19.6469C0.667969 30.4232 9.41157 39.1591 20.1974 39.1591ZM26.2899 9.22437C26.5864 8.17189 25.5642 7.54953 24.6306 8.21408L11.5977 17.4904C10.5852 18.2111 10.7445 19.6469 11.837 19.6469H15.2689V19.6204H21.9575L16.5075 21.5417L14.1049 30.0696C13.8084 31.1221 14.8305 31.7444 15.7642 31.0798L28.7971 21.8035C29.8096 21.0828 29.6502 19.6469 28.5578 19.6469H23.3534L26.2899 9.22437Z" fill="#969695"/>
</g>
<defs>
<clipPath id="clip0_3_156">
<rect width="166" height="40" fill="white"/>
</clipPath>
</defs>
</svg>
